<mxfile host="app.diagrams.net" modified="2023-10-22T19:38:24.164Z" agent="Mozilla/5.0 (X11; Linux x86_64) AppleWebKit/537.36 (KHTML, like Gecko) Chrome/118.0.0.0 Safari/537.36" version="22.0.6" etag="Lh7sSho34CBWxcHcAZeZ" type="github">
  <diagram name="Page-1" id="XM6TwDSvtJLkbn-vb6SO">
    <mxGraphModel>
      <root>
        <mxCell id="0" />
        <mxCell id="1" parent="0" />
      </root>
    </mxGraphModel>
  </diagram>
</mxfile>
